<svg xmlns="http://www.w3.org/2000/svg" width="142" height="55" fill="none" xmlns:v="https://vecta.io/nano"><defs><clipPath id="A"><path fill="#fff" d="M0 0h141.812v54.675H0z"/></clipPath></defs><g stroke="null" clip-path="url(#A)" fill-rule="evenodd"><path fill="#f54811" d="M20.863 35.396l-4.71-4.233h0l-.343-.341.019.138-.019-.139-.123-.889-1.406-10.155.065.069 4.71 4.233v-.001l.343.341-.019-.138.019.139.123.889 1.406 10.155-.065-.069zM31.648 8.313L19.589 5.101c-1.637-.436-2.781.583-2.548 2.262l1.835 13.273-.074-.091-.018-.023-5.471-5.896-.029-.033c-.499-.61-1.318-.548-2.15.292l-4.862 4.896c-1.193 1.201-2.369 3.557-2.612 5.235L1.033 43.087c-.243 1.677.895 3.405 2.528 3.842l12.059 3.212c1.637.436 2.781-.583 2.548-2.262l-1.835-13.273.074.091.018.023 5.471 5.896.029.033c.499.609 1.318.548 2.151-.291l4.862-4.896c1.193-1.202 2.369-3.557 2.611-5.235l2.627-18.071c.243-1.677-.895-3.404-2.528-3.842z"/><g fill="#090b21"><path d="M55.019 41.288c-.057.397-.428.72-.825.72h-4.078c-.397 0-.675-.324-.62-.72L51.55 26.71c0-.33-.095-.578-.283-.744s-.246-.171-.246-.171a16.49 16.49 0 0 0-1.44-.076h-2.152a10.08 10.08 0 0 0-1.513.115l-.504.076a1.11 1.11 0 0 0-.77.873l-2.028 14.505a.86.86 0 0 1-.823.72h-4.079c-.395 0-.675-.324-.62-.72l2.598-18.703a.86.86 0 0 1 .822-.72h3.548c.396 0 .721.328.721.728v1.333c.63-.814 1.448-1.36 2.458-1.64s2.947-.382 2.947-.382l1.442-.038h1.17c.881 0 1.612.082 2.192.242s1.041.404 1.38.728.574.727.7 1.212.151 1.008.151 1.008c.021.4-.009 1.05-.066 1.447l-2.137 14.786zm13.226-23.962c-.059.409-.462.743-.895.743h-4.448c-.434 0-.739-.334-.68-.743l.485-3.349c.06-.408.462-.743.896-.743h4.449c.433 0 .738.335.679.743l-.486 3.349zm-3.546 23.941c-.06.409-.463.742-.897.742h-4.449c-.434 0-.738-.334-.679-.742l2.835-19.271c.061-.409.464-.743.897-.743h4.449c.433 0 .738.334.678.743l-2.834 19.271zm19.562-16.416a.87.87 0 0 1-.835.728h-5a.88.88 0 0 0-.84.726L76.113 36.37v.519c0 .173.033.334.097.482a.71.71 0 0 0 .346.352l.167.086 1.319.044h3.497c.404 0 .691.327.636.727l-.286 2.121c-1.206.589-2.38.956-3.523 1.096l-2.753.211c-.77 0-1.476-.043-2.117-.131s-1.194-.274-1.656-.561-.821-.712-1.078-1.273-.329-1.495-.329-1.495c-.03-.403-.009-1.059.049-1.459l1.561-10.785a.62.62 0 0 0-.629-.727h-2.035a.62.62 0 0 1-.632-.728l.297-2.124c.056-.399.433-.726.836-.726h2.035c.405 0 .782-.327.839-.727l.561-3.895c.058-.4.433-.763.834-.807l4.161-.456a.54.54 0 0 1 .627.648l-.64 4.509a.62.62 0 0 0 .632.727h4.999a.62.62 0 0 1 .632.726l-.298 2.124zm15.645.948c-.058.398-.456.721-.885.721h-1.949l-1.182.038-1.65.112-1.689.167-.549.064c-.413.098-.803.502-.863.899l-2.061 13.489c-.06.397-.46.72-.886.72h-4.391c-.428 0-.728-.324-.668-.72l2.796-18.702c.06-.397.458-.721.885-.721h3.78c.428 0 .777.328.777.728v1.6c.787-.585 1.724-1.119 2.809-1.602s2.401-.726 3.95-.726h1.18.407c.425 0 .726.324.668.721l-.479 3.212zm11.497.035h-2.958c-.675 0-1.232.124-1.673.373s-.609.715-.609.715a9.06 9.06 0 0 0-.357 1.406l-1.291 8.365c0 .403.182.728.546.976a2 2 0 0 0 .819.296l1.48.078h2.175c.674 0 1.239-.132 1.694-.392s.6-.694.6-.694a10.35 10.35 0 0 0 .348-1.409l1.289-8.294c0-.947-.688-1.419-2.062-1.419zm6.419 9.899c-.182 1.215-.525 2.231-1.031 3.046s-1.142 1.46-1.907 1.935-1.653.811-2.665 1.003-2.527.26-2.527.26l-1.484.032h-2.176c-1.167 0-2.192-.086-3.074-.255s-1.628-.461-2.236-.875-1.065-.973-1.363-1.678-.393-1.975-.393-1.975c-.029-.399-.008-1.05.051-1.446l1.178-8.074c.157-1.071.506-1.976 1.05-2.718s1.213-1.344 2.004-1.806 1.667-.797 2.627-1.004 2.216-.272 2.216-.272l1.484-.039h2.604c1.011 0 1.946.091 2.801.273s1.589.481 2.2.894 1.089.956 1.439 1.624.456 1.774.456 1.774a6.98 6.98 0 0 1-.042 1.445l-1.212 7.856z"/></g></g></svg>