<svg width="24" height="24" viewBox="0 0 24 24" fill="none" xmlns="http://www.w3.org/2000/svg">
<path d="M17.8667 1H13.54H6.5V1C3.46243 1 1 3.46243 1 6.5V23H19.3333V12.5" stroke="#31CEC5" stroke-width="2" stroke-linecap="round" stroke-linejoin="round"/>
<path d="M16.8401 10.0672L14.2001 10.5334L14.6621 7.89026L20.5644 1.99093C20.7294 1.82603 20.9532 1.7334 21.1865 1.7334C21.4199 1.7334 21.6437 1.82603 21.8087 1.99093L22.7424 2.92416C22.9074 3.08911 23.0001 3.31279 23.0001 3.54602C23.0001 3.77926 22.9074 4.00294 22.7424 4.16788L16.8401 10.0672Z" stroke="#31CEC5" stroke-width="2" stroke-linecap="round" stroke-linejoin="round"/>
<path d="M6.16534 6.67173C6.58397 7.91398 8.56807 8.32806 10 7.49988C10.9666 5.49655 12.0148 4.82669 11.0482 6.25764C10.0815 7.6886 9.94615 18.9999 6.7081 18.9999C4.85835 18.9999 4.44974 17.0616 5.7836 15.356C7.62611 12.9999 13.008 11.8156 14 14.7142" stroke="#31CEC5" stroke-width="2" stroke-linecap="round" stroke-linejoin="round"/>
</svg>
